<svg width="182" height="182" viewBox="0 0 182 182" fill="none" xmlns="http://www.w3.org/2000/svg">
<path d="M133.34 0H48.85C21.9979 0 0.22998 21.7679 0.22998 48.62V133.11C0.22998 159.962 21.9979 181.73 48.85 181.73H133.34C160.192 181.73 181.96 159.962 181.96 133.11V48.62C181.96 21.7679 160.192 0 133.34 0Z" fill="#E86932"/>
<path d="M40.7099 38.76H62.0499C63.2999 38.76 64.1599 40 63.7299 41.17L51.2899 74.86C50.6099 76.71 52.9699 78.14 54.2899 76.68L63.4299 66.63C64.7699 65.16 67.1499 66.64 66.4199 68.49L46.5699 118.56C45.9199 120.21 43.5299 120.01 43.1599 118.27L29.1999 52.97C27.6399 45.65 33.2199 38.75 40.6999 38.75L40.7099 38.76Z" fill="#253A2B"/>
<path d="M63.55 142.96C57.21 142.96 52.8399 136.61 55.1099 130.69L85.88 42.3299C86.54 40.4199 88.3399 39.1499 90.3599 39.1499C92.2699 39.1499 93.9899 40.2899 94.7299 42.0499L111.61 77.9899C112.37 79.6099 114.82 78.9899 114.71 77.1999L113.29 66.8999C115 64.5599 116.21 65.2699 117.58 67.8199L135.73 102.41C138.93 108.35 140.08 115.17 139.01 121.83L136.83 135.35C136.12 139.73 132.34 142.96 127.9 142.96H84.87L110.95 114.58L93.37 110.85L99.3599 103.75L90.2799 86.0099L91.83 70.9599C91.94 69.9299 90.5199 69.5499 90.0899 70.4899L83.52 85.0699L87.26 103.62L65.62 121.79L86.2299 119.8L67.68 133.99L63.56 142.95L63.55 142.96Z" fill="#253A2B"/>
<path d="M116.62 42.8899C115.75 41.1799 116.99 39.1499 118.92 39.1499H143.28C149.67 39.1499 154.41 45.0699 153.01 51.3099L144.65 87.7799C144.1 90.1699 140.86 90.5699 139.75 88.3799L116.63 42.8999L116.62 42.8899Z" fill="#253A2B"/>
</svg>
