<svg width="183" height="182" viewBox="0 0 183 182" fill="none" xmlns="http://www.w3.org/2000/svg">
<path d="M133.52 0H49.0299C22.1778 0 0.409912 21.7679 0.409912 48.62V133.11C0.409912 159.962 22.1778 181.73 49.0299 181.73H133.52C160.372 181.73 182.14 159.962 182.14 133.11V48.62C182.14 21.7679 160.372 0 133.52 0Z" fill="#F2E4DB"/>
<path d="M40.8801 38.76H62.2201C63.4701 38.76 64.3301 40 63.9001 41.17L51.4601 74.86C50.7801 76.71 53.1401 78.14 54.4601 76.68L63.6001 66.63C64.9401 65.16 67.3201 66.64 66.5901 68.49L46.7401 118.56C46.0901 120.21 43.7001 120.01 43.3301 118.27L29.3701 52.97C27.8101 45.65 33.3901 38.75 40.8701 38.75L40.8801 38.76Z" fill="#E86932"/>
<path d="M63.7201 142.96C57.3801 142.96 53.0101 136.61 55.2801 130.69L86.0501 42.3299C86.7101 40.4199 88.5101 39.1499 90.5301 39.1499C92.4401 39.1499 94.1601 40.2899 94.9001 42.0499L111.78 77.9899C112.54 79.6099 114.99 78.9899 114.88 77.1999L113.46 66.8999C115.17 64.5599 116.38 65.2699 117.75 67.8199L135.9 102.41C139.1 108.35 140.25 115.17 139.18 121.83L137 135.35C136.29 139.73 132.51 142.96 128.07 142.96H85.0401L111.12 114.58L93.5401 110.85L99.5301 103.75L90.4501 86.0099L92.0001 70.9599C92.1101 69.9299 90.6901 69.5499 90.2601 70.4899L83.6901 85.0699L87.4301 103.62L65.7901 121.79L86.4001 119.8L67.8501 133.99L63.7301 142.95L63.7201 142.96Z" fill="#E86932"/>
<path d="M116.79 42.8899C115.92 41.1799 117.16 39.1499 119.09 39.1499H143.45C149.84 39.1499 154.58 45.0699 153.18 51.3099L144.82 87.7799C144.27 90.1699 141.03 90.5699 139.92 88.3799L116.8 42.8999L116.79 42.8899Z" fill="#E86932"/>
</svg>
