<svg width="420" height="164" viewBox="0 0 420 164" fill="none" xmlns="http://www.w3.org/2000/svg">
    <path d="M246.282 56.5C247.022 55.47 247.252 54.3 247.332 53.08L247.132 52.38C246.892 52.22 246.662 51.99 246.392 51.99C245.412 52.02 244.492 51.58 243.522 51.66C242.242 51.77 241.172 51.23 240.142 50.64C238.242 49.56 236.422 48.37 234.712 47.01C233.092 45.73 231.282 44.9 229.142 45.01C228.612 45.04 228.162 44.77 227.872 44.32C227.192 43.27 226.522 42.21 225.852 41.16C225.732 40.97 225.602 40.77 225.762 40.55C226.172 39.99 225.862 39.6 225.442 39.27C223.892 38.06 222.702 36.48 221.322 35.1C220.462 34.24 219.742 33.24 219.262 32.13C218.682 30.78 217.962 29.54 216.952 28.46C216.882 28.39 216.792 28.32 216.752 28.22C216.522 28.06 216.282 27.91 216.042 27.75C215.622 27.47 215.202 27.17 214.802 26.86C214.172 26.37 213.552 25.87 213.002 25.29C212.472 24.72 212.012 24.09 211.662 23.4C211.232 22.57 210.942 21.69 210.622 20.82C210.302 19.95 209.952 19.12 209.562 18.29C208.872 16.84 208.182 15.31 206.902 14.28C206.262 13.77 205.582 13.3 204.932 12.79C204.752 12.65 204.572 12.5 204.402 12.35C204.062 12.29 203.722 12.21 203.392 12.24C202.282 12.34 201.572 11.69 200.912 10.98C200.242 10.26 200.272 10.2 200.782 9.36004C201.232 8.62004 201.732 7.92003 202.062 7.10003C202.662 5.58003 200.672 1.67004 199.082 1.28004C197.582 0.910042 196.102 0.900044 194.682 1.47004C192.612 2.29004 192.332 4.32004 192.552 6.57004C192.612 7.16004 192.632 7.66004 192.362 8.18004C192.102 8.68004 191.982 9.13004 192.642 9.42004C192.702 9.45004 192.782 9.54003 192.782 9.60003C192.862 10.43 193.482 11.08 193.552 11.92C193.602 12.52 194.012 12.71 194.582 12.69C195.162 12.67 195.752 12.68 196.332 12.67C196.802 12.67 197.122 12.9 197.352 13.3C197.562 13.66 197.522 13.8 197.072 13.79C195.882 13.75 194.692 13.74 193.502 13.71C192.912 13.7 192.342 13.58 191.852 13.19C191.192 12.67 190.432 12.34 189.632 12.12C186.892 11.35 184.192 10.44 181.482 9.58004C180.512 9.28004 179.622 8.87004 178.962 8.11004C178.422 7.48004 177.802 7.03004 177.122 6.70004C176.922 7.76004 176.532 8.80004 176.222 9.84004C176.172 10.07 176.112 10.29 176.082 10.53C176.082 10.56 176.072 10.58 176.062 10.61C176.852 10.93 177.632 11.28 178.242 11.75C178.182 11.42 178.122 11.1 178.062 10.77C178.022 10.56 177.962 10.25 178.322 10.31C178.772 10.38 179.242 10.34 179.652 10.63C181.022 11.6 182.482 12.42 183.972 13.19C185.982 14.23 188.012 15.22 190.252 15.69C191.022 15.85 191.792 16.09 192.462 16.49C194.142 17.49 195.992 17.96 197.862 18.38C198.782 18.59 198.772 18.6 198.942 19.55C199.182 20.88 198.972 22.25 199.282 23.58C199.482 24.44 199.692 25.3 199.572 26.21C199.512 26.63 199.402 26.83 198.932 26.9C197.562 27.11 196.192 27.38 194.832 27.65C192.522 28.11 190.232 28.74 187.842 28.19C187.492 28.11 187.062 28.04 186.782 28.28C186.382 28.63 185.892 28.89 185.442 29.2C185.482 29.24 185.542 29.27 185.582 29.3C185.622 29.3 185.662 29.3 185.702 29.3C187.082 29.41 188.432 29.8 189.792 30C189.972 29.89 190.182 29.82 190.412 29.8C190.652 29.78 190.892 29.83 191.132 29.84C193.812 30.03 196.492 30.17 199.172 29.81C200.592 29.62 201.862 29.22 202.312 27.63C202.362 27.46 202.482 27.31 202.542 27.14C202.692 26.77 202.882 26.72 203.162 27.02C203.642 27.55 204.212 27.96 204.852 28.28C205.142 28.43 205.292 28.66 205.392 28.97C205.582 29.54 205.662 30.17 206.072 30.64C206.812 31.5 206.982 32.65 207.602 33.56C207.872 33.95 207.682 34.25 207.242 34.46C206.542 34.78 205.882 35.18 205.292 35.67C204.732 36.14 204.132 36.53 203.412 36.73C203.092 36.82 202.692 36.92 202.572 37.27C202.352 37.91 201.842 38.27 201.402 38.71C200.302 39.81 199.222 40.93 198.102 42C196.902 43.14 196.662 44.46 197.192 45.99C197.252 46.55 197.652 47.01 197.712 47.58C198.212 51.93 198.702 56.28 199.202 60.63C199.232 60.89 199.242 61.15 199.062 61.38C198.832 61.68 198.832 61.99 198.992 62.34C199.162 62.71 199.152 63.12 198.782 63.38C198.172 63.81 197.562 64.23 196.932 64.63C197.652 65.58 198.302 66.59 198.932 67.6301C199.132 67.9601 199.332 68.28 199.532 68.61C199.592 68.56 199.652 68.51 199.712 68.46C199.712 68.46 199.722 68.4501 199.732 68.44C199.862 68.29 199.992 68.1401 200.122 67.9801C200.342 67.7001 200.552 67.41 200.752 67.11C200.942 66.82 201.132 66.5301 201.312 66.2301C201.602 65.7001 201.502 65.9 201.392 66.09C201.452 65.99 201.502 65.8901 201.562 65.7901C201.832 65.3101 202.172 64.92 202.562 64.62C202.422 64.15 202.242 63.69 202.012 63.24C201.932 63.08 201.802 62.9201 201.862 62.7301C202.082 62.1201 201.942 61.49 201.962 60.87C202.042 59.01 202.272 57.2 202.802 55.39C203.632 52.53 203.362 49.72 201.812 47.09C201.432 46.45 201.442 45.99 201.982 45.73C203.802 44.87 205.112 43.16 207.222 42.76C208.432 42.53 209.602 42 210.762 41.53C212.332 40.89 214.062 40.69 215.522 39.78C215.722 39.65 215.912 39.71 216.082 39.85C218.252 41.65 220.512 43.34 222.562 45.28C223.472 46.14 224.462 46.93 225.212 47.93C225.832 48.76 226.622 49.21 227.632 49.18C228.432 49.16 229.192 49.31 229.952 49.53C233.042 50.42 236.032 51.6 239.002 52.8C239.462 52.99 239.962 53.12 240.192 53.65C240.262 53.8 240.432 53.9 240.592 53.89C241.522 53.84 241.702 54.47 241.862 55.19C242.322 57.25 242.542 59.33 242.442 61.44C242.432 61.71 242.472 61.95 242.692 62.15C243.042 62.46 243.372 62.78 243.702 63.1C244.022 63.4 244.332 63.4 244.662 63.1C245.052 62.75 245.282 62.31 245.452 61.83C245.892 60.55 245.992 59.22 245.942 57.89C245.922 57.36 246.002 56.85 246.282 56.44V56.5Z"
          fill="#E86932"/>
    <path d="M194.762 73.6001C194.002 76.5301 196.662 79.1801 199.602 78.4501C203.672 77.4401 208.282 76.89 211.652 76.89C216.742 76.89 221.362 78.13 225.482 80.61C229.612 83.08 232.942 86.49 235.492 90.84C238.042 95.19 239.322 100.29 239.322 106.14C239.322 111.54 238.082 116.45 235.612 120.88C233.132 125.3 229.872 128.79 225.822 131.34C221.772 133.89 217.192 135.16 212.102 135.16C206.552 135.16 201.562 133.89 197.142 131.34C196.112 130.75 195.132 130.11 194.202 129.41C190.452 126.62 185.092 128.6 184.142 133.18L181.022 148.14C180.462 150.82 181.672 153.56 184.042 154.94C185.372 155.72 186.742 156.43 188.142 157.1C194.362 160.02 201.002 161.48 208.052 161.48C214.652 161.48 220.272 160.47 224.922 158.45C229.572 156.42 233.322 154.1 236.172 151.47C239.022 148.85 241.042 146.56 242.242 144.61L240.672 152.03C240.672 154.89 241.722 157.13 243.822 158.78C245.922 160.43 249.142 161.26 253.492 161.26C257.842 161.26 260.732 160.66 262.602 159.46C264.482 158.26 265.642 156.61 266.092 154.51C266.542 152.41 266.762 150.09 266.762 147.54V65.2001C266.762 62.5001 266.542 60.0601 266.092 57.8801C265.642 55.7101 264.522 53.99 262.722 52.71C260.922 51.44 257.912 50.8 253.722 50.8C249.222 50.8 245.922 51.66 243.822 53.39C241.722 55.11 240.672 57.62 240.672 60.92L242.022 67.4501C240.072 64.7501 237.592 62.16 234.592 59.68C231.592 57.21 227.962 55.15 223.682 53.5C219.412 51.85 214.202 51.0201 208.052 51.0201H207.972C203.422 51.0201 199.502 54.24 198.622 58.71L194.762 73.6001Z"
          fill="#42644B"/>
    <path d="M342.562 139.71C341.592 137.91 340.312 136.78 338.742 136.33C337.162 135.88 324.242 135.66 322.292 135.66C320.042 135.66 318.132 135.43 316.562 134.98C314.982 134.53 313.702 133.74 312.732 132.62C311.752 131.49 311.082 130 310.712 128.12C310.332 126.25 310.142 123.88 310.142 121.03V13.5C310.142 10.95 309.882 8.66 309.362 6.64C308.832 4.61 307.632 3 305.762 1.8C303.882 0.600003 300.842 0 296.652 0C292.462 0 289.412 0.640004 287.532 1.91C285.662 3.19 284.462 4.84 283.932 6.86C283.412 8.89 283.152 11.17 283.152 13.72V122.16C283.152 128.46 283.632 133.86 284.612 138.36C285.582 142.86 287.052 146.64 289.002 149.72C290.942 152.79 293.462 155.23 296.532 157.03C299.612 158.83 303.282 160.1 307.562 160.85C311.832 161.6 316.742 161.98 322.292 161.98C324.092 161.98 336.972 161.75 338.632 161.3C340.282 160.85 341.592 159.65 342.562 157.7C343.542 155.76 344.032 152.68 344.032 148.48C344.032 144.28 343.542 141.51 342.562 139.71Z"
          fill="#42644B"/>
    <path d="M419.832 146.91C419.612 144.06 417.552 140.98 413.652 137.68L372.482 105.29L402.852 77.16C406.452 73.56 408.322 70.45 408.472 67.83C408.622 65.21 406.822 61.87 403.072 57.82C400.822 55.27 398.692 53.66 396.662 52.98C394.642 52.31 392.572 52.38 390.482 53.21C388.372 54.03 386.122 55.57 383.732 57.82L352.682 87.96V14.17C352.682 11.47 352.422 9.10998 351.892 7.08998C351.372 5.05998 350.212 3.40998 348.412 2.13998C346.612 0.859984 343.602 0.22998 339.412 0.22998C335.222 0.22998 332.172 0.859984 330.302 2.13998C328.422 3.40998 327.222 5.05998 326.702 7.08998C326.172 9.10998 325.912 11.4 325.912 13.95V148.25C325.912 150.66 326.132 152.91 326.582 155C327.032 157.11 328.192 158.79 330.072 160.07C331.952 161.34 334.982 161.98 339.182 161.98C343.382 161.98 346.422 161.38 348.292 160.18C350.172 158.98 351.372 157.33 351.892 155.23C352.422 153.13 352.682 150.88 352.682 148.48V121.71L395.652 157.93C398.352 160.18 400.672 161.71 402.622 162.54C404.572 163.36 406.522 163.33 408.472 162.43C410.422 161.53 412.672 159.65 415.222 156.8C418.522 153.06 420.062 149.76 419.832 146.91Z"
          fill="#42644B"/>
    <path d="M18.662 1.14001H51.152C53.052 1.14001 54.362 3.03001 53.712 4.81001L34.782 56.09C33.742 58.9 37.342 61.08 39.352 58.87L53.272 43.57C55.312 41.33 58.932 43.59 57.822 46.41L27.602 122.61C26.612 125.12 22.972 124.81 22.402 122.18L1.16197 22.8C-1.21803 11.66 7.27196 1.16002 18.672 1.16002L18.662 1.14001Z"
          fill="#42644B"/>
    <path d="M53.422 159.73C43.772 159.73 37.122 150.06 40.572 141.05L87.402 6.56996C88.412 3.66996 91.152 1.71997 94.222 1.71997C97.122 1.71997 99.742 3.45997 100.872 6.13997L126.552 60.84C127.712 63.31 131.432 62.37 131.272 59.64L129.112 43.96C131.722 40.4 133.552 41.48 135.642 45.37L163.262 98.02C168.132 107.05 169.882 117.44 168.252 127.57L164.942 148.15C163.872 154.82 158.112 159.72 151.352 159.72H85.852L125.552 116.52L98.792 110.84L107.912 100.04L94.092 73.04L96.442 50.14C96.602 48.57 94.442 47.99 93.802 49.43L83.802 71.62L89.492 99.85L56.552 127.51L87.922 124.48L59.692 146.08L53.422 159.72V159.73Z"
          fill="#42644B"/>
    <path d="M134.192 7.42998C132.862 4.81998 134.762 1.72998 137.692 1.72998H174.762C184.482 1.72998 191.702 10.74 189.572 20.23L176.842 75.73C176.002 79.37 171.072 79.98 169.382 76.65L134.202 7.42998H134.192Z"
          fill="#42644B"/>
</svg>
