<svg width="182" height="182" viewBox="0 0 182 182" fill="none" xmlns="http://www.w3.org/2000/svg">
<path d="M133.11 0H48.62C21.7679 0 0 21.7679 0 48.62V133.11C0 159.962 21.7679 181.73 48.62 181.73H133.11C159.962 181.73 181.73 159.962 181.73 133.11V48.62C181.73 21.7679 159.962 0 133.11 0Z" fill="#42644B"/>
<path d="M40.4799 38.76H61.8199C63.0699 38.76 63.9299 40 63.4999 41.17L51.0599 74.86C50.3799 76.71 52.7399 78.14 54.0599 76.68L63.1999 66.63C64.5399 65.16 66.9199 66.64 66.1899 68.49L46.3399 118.56C45.6899 120.21 43.2999 120.01 42.9299 118.27L28.9699 52.97C27.4099 45.65 32.9899 38.75 40.4699 38.75L40.4799 38.76Z" fill="#F2E4DB"/>
<path d="M63.32 142.96C56.98 142.96 52.61 136.61 54.88 130.69L85.65 42.3299C86.31 40.4199 88.11 39.1499 90.13 39.1499C92.04 39.1499 93.76 40.2899 94.5 42.0499L111.38 77.9899C112.14 79.6099 114.59 78.9899 114.48 77.1999L113.06 66.8999C114.77 64.5599 115.98 65.2699 117.35 67.8199L135.5 102.41C138.7 108.35 139.85 115.17 138.78 121.83L136.6 135.35C135.89 139.73 132.11 142.96 127.67 142.96H84.64L110.72 114.58L93.14 110.85L99.13 103.75L90.05 86.0099L91.6 70.9599C91.71 69.9299 90.29 69.5499 89.86 70.4899L83.29 85.0699L87.03 103.62L65.39 121.79L86 119.8L67.45 133.99L63.33 142.95L63.32 142.96Z" fill="#F2E4DB"/>
<path d="M116.39 42.8899C115.52 41.1799 116.76 39.1499 118.69 39.1499H143.05C149.44 39.1499 154.18 45.0699 152.78 51.3099L144.42 87.7799C143.87 90.1699 140.63 90.5699 139.52 88.3799L116.4 42.8999L116.39 42.8899Z" fill="#F2E4DB"/>
</svg>
